# Blender v2.83.4 OBJ File: 'prototipoPreAlpha00001.blend'
# www.blender.org
mtllib casas.mtl
o Cube.001_Cube.002
v -67.953751 0.262246 29.327461
v -67.953751 15.495905 29.327461
v -67.953751 0.262246 14.093801
v -67.953751 15.495905 14.093801
v -52.720089 0.262246 29.327461
v -52.720089 15.495905 29.327461
v -52.720089 0.262246 14.093801
v -52.720089 15.495905 14.093801
v -60.403576 23.457439 21.750160
v -68.234322 15.626698 29.580904
v -60.403576 23.457439 21.721832
v -68.234322 15.626698 13.891088
v -60.375248 23.457439 21.750160
v -52.544502 15.626698 29.580904
v -60.375248 23.457439 21.721832
v -52.544502 15.626698 13.891088
vt 0.375000 0.000000
vt 0.625000 0.000000
vt 0.625000 0.250000
vt 0.375000 0.250000
vt 0.625000 0.500000
vt 0.375000 0.500000
vt 0.625000 0.750000
vt 0.375000 0.750000
vt 0.625000 1.000000
vt 0.375000 1.000000
vt 0.125000 0.500000
vt 0.125000 0.750000
vt 0.875000 0.500000
vt 0.875000 0.750000
vt 0.749774 0.624774
vt 0.750226 0.624774
vt 0.750226 0.625226
vt 0.749774 0.625226
vt 0.875000 0.500000
vt 0.875000 0.750000
vt 0.625000 0.500000
vt 0.500226 0.750000
vt 0.500226 0.500000
vt 0.625000 0.750000
vn -1.0000 0.0000 0.0000
vn 0.0000 0.0000 -1.0000
vn 1.0000 0.0000 0.0000
vn 0.0000 0.0000 1.0000
vn 0.0000 -1.0000 0.0000
vn 0.0000 1.0000 0.0000
vn -0.7071 0.7071 0.0000
vn 0.0000 0.7071 -0.7071
vn 0.7071 0.7071 0.0000
vn 0.0000 0.7071 0.7071
usemtl None
s off
f 1/1/1 2/2/1 4/3/1 3/4/1
f 3/4/2 4/3/2 8/5/2 7/6/2
f 7/6/3 8/5/3 6/7/3 5/8/3
f 5/8/4 6/7/4 2/9/4 1/10/4
f 3/11/5 7/6/5 5/8/5 1/12/5
f 8/5/6 4/13/6 2/14/6 6/7/6
f 15/15/6 11/16/6 9/17/6 13/18/6
f 9/17/7 11/16/7 12/19/7 10/20/7
f 11/16/8 15/15/8 16/21/8 12/19/8
f 15/15/9 13/18/9 14/22/9 16/23/9
f 13/18/10 9/17/10 10/20/10 14/24/10
o Cube.002_Cube.003
v -33.029663 0.337541 11.909409
v -33.029663 15.571201 11.909409
v -33.029663 0.337541 -3.324251
v -33.029663 15.571201 -3.324251
v -17.796005 0.337541 11.909409
v -17.796005 15.571201 11.909409
v -17.796005 0.337541 -3.324251
v -17.796005 15.571201 -3.324251
v -25.479492 23.532736 4.332109
v -33.310234 15.701992 12.162852
v -25.479492 23.532736 4.303780
v -33.310234 15.701992 -3.526963
v -25.451162 23.532736 4.332109
v -17.620419 15.701992 12.162852
v -25.451162 23.532736 4.303780
v -17.620419 15.701992 -3.526963
vt 0.375000 0.000000
vt 0.625000 0.000000
vt 0.625000 0.250000
vt 0.375000 0.250000
vt 0.625000 0.500000
vt 0.375000 0.500000
vt 0.625000 0.750000
vt 0.375000 0.750000
vt 0.625000 1.000000
vt 0.375000 1.000000
vt 0.125000 0.500000
vt 0.125000 0.750000
vt 0.875000 0.500000
vt 0.875000 0.750000
vt 0.749774 0.624774
vt 0.750226 0.624774
vt 0.750226 0.625226
vt 0.749774 0.625226
vt 0.875000 0.500000
vt 0.875000 0.750000
vt 0.625000 0.500000
vt 0.500226 0.750000
vt 0.500226 0.500000
vt 0.625000 0.750000
vn -1.0000 0.0000 0.0000
vn 0.0000 0.0000 -1.0000
vn 1.0000 0.0000 0.0000
vn 0.0000 0.0000 1.0000
vn 0.0000 -1.0000 0.0000
vn 0.0000 1.0000 0.0000
vn -0.7071 0.7071 0.0000
vn 0.0000 0.7071 -0.7071
vn 0.7071 0.7071 0.0000
vn 0.0000 0.7071 0.7071
usemtl None
s off
f 17/25/11 18/26/11 20/27/11 19/28/11
f 19/28/12 20/27/12 24/29/12 23/30/12
f 23/30/13 24/29/13 22/31/13 21/32/13
f 21/32/14 22/31/14 18/33/14 17/34/14
f 19/35/15 23/30/15 21/32/15 17/36/15
f 24/29/16 20/37/16 18/38/16 22/31/16
f 31/39/16 27/40/16 25/41/16 29/42/16
f 25/41/17 27/40/17 28/43/17 26/44/17
f 27/40/18 31/39/18 32/45/18 28/43/18
f 31/39/19 29/42/19 30/46/19 32/47/19
f 29/42/20 25/41/20 26/44/20 30/48/20
o Cube.003_Cube.004
v -44.609673 0.466872 45.859634
v -44.609673 15.700532 45.859634
v -44.609673 0.466872 30.625977
v -44.609673 15.700532 30.625977
v -29.376015 0.466872 45.859634
v -29.376015 15.700532 45.859634
v -29.376015 0.466872 30.625977
v -29.376015 15.700532 30.625977
v -37.059502 23.662067 38.282337
v -44.890244 15.831324 46.113079
v -37.059502 23.662067 38.254005
v -44.890244 15.831324 30.423264
v -37.031174 23.662067 38.282337
v -29.200428 15.831324 46.113079
v -37.031174 23.662067 38.254005
v -29.200428 15.831324 30.423264
vt 0.375000 0.000000
vt 0.625000 0.000000
vt 0.625000 0.250000
vt 0.375000 0.250000
vt 0.625000 0.500000
vt 0.375000 0.500000
vt 0.625000 0.750000
vt 0.375000 0.750000
vt 0.625000 1.000000
vt 0.375000 1.000000
vt 0.125000 0.500000
vt 0.125000 0.750000
vt 0.875000 0.500000
vt 0.875000 0.750000
vt 0.749774 0.624774
vt 0.750226 0.624774
vt 0.750226 0.625226
vt 0.749774 0.625226
vt 0.875000 0.500000
vt 0.875000 0.750000
vt 0.625000 0.500000
vt 0.500226 0.750000
vt 0.500226 0.500000
vt 0.625000 0.750000
vn -1.0000 0.0000 0.0000
vn 0.0000 0.0000 -1.0000
vn 1.0000 0.0000 0.0000
vn 0.0000 0.0000 1.0000
vn 0.0000 -1.0000 0.0000
vn 0.0000 1.0000 0.0000
vn -0.7071 0.7071 0.0000
vn 0.0000 0.7071 -0.7071
vn 0.7071 0.7071 0.0000
vn 0.0000 0.7071 0.7071
usemtl None
s off
f 33/49/21 34/50/21 36/51/21 35/52/21
f 35/52/22 36/51/22 40/53/22 39/54/22
f 39/54/23 40/53/23 38/55/23 37/56/23
f 37/56/24 38/55/24 34/57/24 33/58/24
f 35/59/25 39/54/25 37/56/25 33/60/25
f 40/53/26 36/61/26 34/62/26 38/55/26
f 47/63/26 43/64/26 41/65/26 45/66/26
f 41/65/27 43/64/27 44/67/27 42/68/27
f 43/64/28 47/63/28 48/69/28 44/67/28
f 47/63/29 45/66/29 46/70/29 48/71/29
f 45/66/30 41/65/30 42/68/30 46/72/30
o Cube.004_Cube.005
v -52.765083 0.300180 -3.861178
v -52.765083 15.533840 -3.861178
v -52.765083 0.300180 -19.094837
v -52.765083 15.533840 -19.094837
v -37.531425 0.300180 -3.861178
v -37.531425 15.533840 -3.861178
v -37.531425 0.300180 -19.094837
v -37.531425 15.533840 -19.094837
v -45.214912 23.495375 -11.438478
v -53.045654 15.664632 -3.607735
v -45.214912 23.495375 -11.466806
v -53.045654 15.664632 -19.297550
v -45.186584 23.495375 -11.438478
v -37.355839 15.664632 -3.607735
v -45.186584 23.495375 -11.466806
v -37.355839 15.664632 -19.297550
vt 0.375000 0.000000
vt 0.625000 0.000000
vt 0.625000 0.250000
vt 0.375000 0.250000
vt 0.625000 0.500000
vt 0.375000 0.500000
vt 0.625000 0.750000
vt 0.375000 0.750000
vt 0.625000 1.000000
vt 0.375000 1.000000
vt 0.125000 0.500000
vt 0.125000 0.750000
vt 0.875000 0.500000
vt 0.875000 0.750000
vt 0.749774 0.624774
vt 0.750226 0.624774
vt 0.750226 0.625226
vt 0.749774 0.625226
vt 0.875000 0.500000
vt 0.875000 0.750000
vt 0.625000 0.500000
vt 0.500226 0.750000
vt 0.500226 0.500000
vt 0.625000 0.750000
vn -1.0000 0.0000 0.0000
vn 0.0000 0.0000 -1.0000
vn 1.0000 0.0000 0.0000
vn 0.0000 0.0000 1.0000
vn 0.0000 -1.0000 0.0000
vn 0.0000 1.0000 0.0000
vn -0.7071 0.7071 0.0000
vn 0.0000 0.7071 -0.7071
vn 0.7071 0.7071 0.0000
vn 0.0000 0.7071 0.7071
usemtl None
s off
f 49/73/31 50/74/31 52/75/31 51/76/31
f 51/76/32 52/75/32 56/77/32 55/78/32
f 55/78/33 56/77/33 54/79/33 53/80/33
f 53/80/34 54/79/34 50/81/34 49/82/34
f 51/83/35 55/78/35 53/80/35 49/84/35
f 56/77/36 52/85/36 50/86/36 54/79/36
f 63/87/36 59/88/36 57/89/36 61/90/36
f 57/89/37 59/88/37 60/91/37 58/92/37
f 59/88/38 63/87/38 64/93/38 60/91/38
f 63/87/39 61/90/39 62/94/39 64/95/39
f 61/90/40 57/89/40 58/92/40 62/96/40
