# Blender v2.83.4 OBJ File: 'prototipoPreAlpha00001.blend'
# www.blender.org
mtllib casa.mtl
o Cube.003_Cube.004
v -7.465152 0.277359 7.388528
v -7.465152 15.511019 7.388528
v -7.465152 0.277359 -7.845132
v -7.465152 15.511019 -7.845132
v 7.768507 0.277359 7.388528
v 7.768507 15.511019 7.388528
v 7.768507 0.277359 -7.845132
v 7.768507 15.511019 -7.845132
v 0.085020 23.472553 -0.188772
v -7.745723 15.641811 7.641972
v 0.085020 23.472553 -0.217101
v -7.745723 15.641811 -8.047844
v 0.113349 23.472553 -0.188772
v 7.944092 15.641811 7.641972
v 0.113349 23.472553 -0.217101
v 7.944092 15.641811 -8.047844
vt 0.375000 0.000000
vt 0.625000 0.000000
vt 0.625000 0.250000
vt 0.375000 0.250000
vt 0.625000 0.500000
vt 0.375000 0.500000
vt 0.625000 0.750000
vt 0.375000 0.750000
vt 0.625000 1.000000
vt 0.375000 1.000000
vt 0.125000 0.500000
vt 0.125000 0.750000
vt 0.875000 0.500000
vt 0.875000 0.750000
vt 0.749774 0.624774
vt 0.750226 0.624774
vt 0.750226 0.625226
vt 0.749774 0.625226
vt 0.875000 0.500000
vt 0.875000 0.750000
vt 0.625000 0.500000
vt 0.500226 0.750000
vt 0.500226 0.500000
vt 0.625000 0.750000
vn -1.0000 0.0000 0.0000
vn 0.0000 0.0000 -1.0000
vn 1.0000 0.0000 0.0000
vn 0.0000 0.0000 1.0000
vn 0.0000 -1.0000 0.0000
vn 0.0000 1.0000 0.0000
vn -0.7071 0.7071 0.0000
vn 0.0000 0.7071 -0.7071
vn 0.7071 0.7071 0.0000
vn 0.0000 0.7071 0.7071
usemtl None
s off
f 1/1/1 2/2/1 4/3/1 3/4/1
f 3/4/2 4/3/2 8/5/2 7/6/2
f 7/6/3 8/5/3 6/7/3 5/8/3
f 5/8/4 6/7/4 2/9/4 1/10/4
f 3/11/5 7/6/5 5/8/5 1/12/5
f 8/5/6 4/13/6 2/14/6 6/7/6
f 15/15/6 11/16/6 9/17/6 13/18/6
f 9/17/7 11/16/7 12/19/7 10/20/7
f 11/16/8 15/15/8 16/21/8 12/19/8
f 15/15/9 13/18/9 14/22/9 16/23/9
f 13/18/10 9/17/10 10/20/10 14/24/10
